{"title":"Lego Ninjago - Masters of Spinjitsu (2011) DVDRip XviD AC3 Soup","uid":11579347,"size":776498748,"categoryP":"video","categoryS":"movies","magnet":"?xt=urn:btih:a3f45a31a82f35762c24fe0e688a9b81b8152404&amp;dn=Lego+Ninjago+-+Masters+of+Spinjitsu+%282011%29+DVDRip+XviD+AC3+Soup&amp;tr=udp%3A%2F%2Ftracker.openbittorrent.com%3A80&amp;tr=udp%3A%2F%2Fopen.demonii.com%3A1337&amp;tr=udp%3A%2F%2Ftracker.coppersurfer.tk%3A6969&amp;tr=udp%3A%2F%2Fexodus.desync.com%3A6969","seeders":18,"leechers":4,"uploader":"peaSoup","files":-1,"time":1417109405,"description":"When the fait of their world, Ninjago, is challenged by great threats, it's up to the ninja, Kai, Jay, Cole, Zane, and Lloyd to save the world.                       &lt;a href=&quot; http://i.imgur.com/dxWgykh.jpg&quot; rel=&quot;nofollow&quot; target=&quot;_NEW&quot;&gt; http://i.imgur.com/dxWgykh.jpg&lt;/a&gt;                                                      &lt;a href=&quot; http://i.imgur.com/jtGGY5n.jpg&quot; rel=&quot;nofollow&quot; target=&quot;_NEW&quot;&gt; http://i.imgur.com/jtGGY5n.jpg&lt;/a&gt;                                                      &lt;a href=&quot; http://i.imgur.com/XoGnvAV.jpg&quot; rel=&quot;nofollow&quot; target=&quot;_NEW&quot;&gt; http://i.imgur.com/XoGnvAV.jpg&lt;/a&gt;                                                      &lt;a href=&quot; http://i.imgur.com/DFRbuwG.jpg&quot; rel=&quot;nofollow&quot; target=&quot;_NEW&quot;&gt; http://i.imgur.com/DFRbuwG.jpg&lt;/a&gt;                                                       \nFormat                      : AVI\nFormat/Info                 : Audio Video Interleave\nFile size                   : 739 MiB\nDuration                    : 44mn 8s\nOverall bit rate            : 2 340 Kbps\nMovie name                  : Lego Ninjago - Masters of Spinjitsu (2011) DVDRip XviD AC3 Soup\nWriting application         : Lavf55.33.100\nOriginal source form/Name   : LEGO_NINJAGO_MASTERS_SPINJITZU\n\nVideo\nID                          : 0\nFormat                      : MPEG-4 Visual\nFormat profile              : Advanced Simple@L5\nFormat settings, BVOP       : 2\nFormat settings, QPel       : No\nFormat settings, GMC        : No warppoints\nFormat settings, Matrix     : Default (MPEG)\nMuxing mode                 : Packed bitstream\nCodec ID                    : XVID\nCodec ID/Hint               : XviD\nDuration                    : 44mn 8s\nBit rate                    : 2 138 Kbps\nWidth                       : 720 pixels\nHeight                      : 404 pixels\nDisplay aspect ratio        : 16:9\nFrame rate                  : 25.000 fps\nColor space                 : YUV\nChroma subsampling          : 4:2:0\nBit depth                   : 8 bits\nScan type                   : Progressive\nCompression mode            : Lossy\nBits/(Pixel*Frame)          : 0.294\nStream size                 : 675 MiB (91%)\nWriting library             : XviD 64\n\nAudio\nID                          : 1\nFormat                      : AC-3\nFormat/Info                 : Audio Coding 3\nFormat profile              : Dolby Digital\nMode extension              : CM (complete main)\nFormat settings, Endianness : Big\nCodec ID                    : 2000\nDuration                    : 44mn 8s\nBit rate mode               : Constant\nBit rate                    : 192 Kbps\nChannel(s)                  : 2 channels\nChannel positions           : Front: L R\nSampling rate               : 48.0 KHz\nBit depth                   : 16 bits\nCompression mode            : Lossy\nStream size                 : 60.6 MiB (8%)\nAlignment                   : Aligned on interleaves\nInterleave, duration        : 32 ms (0.80 video frame)","torrent":{"xt":"urn:btih:a3f45a31a82f35762c24fe0e688a9b81b8152404","amp;dn":"Lego+Ninjago+-+Masters+of+Spinjitsu+%282011%29+DVDRip+XviD+AC3+Soup","amp;tr":["udp%3A%2F%2Ftracker.openbittorrent.com%3A80","udp%3A%2F%2Fopen.demonii.com%3A1337","udp%3A%2F%2Ftracker.coppersurfer.tk%3A6969","udp%3A%2F%2Fexodus.desync.com%3A6969"],"infoHash":"a3f45a31a82f35762c24fe0e688a9b81b8152404","infoHashBuffer":{"type":"Buffer","data":[163,244,90,49,168,47,53,118,44,36,254,14,104,138,155,129,184,21,36,4]},"announce":[],"urlList":[]}}